<svg width="456" height="456" viewBox="0 0 456 456" xmlns="http://www.w3.org/2000/svg"><title>add-contact</title><g fill="#009FE3" fill-rule="evenodd"><path d="M199.5 381.9v-51.3c0-1.7-1.4-3.1-3.1-3.1h-67.9v-67.9c0-1.7-1.4-3.1-3.1-3.1H74.1c-1.7 0-3.1 1.4-3.1 3.1v67.9H3.1c-1.7 0-3.1 1.4-3.1 3.1v51.3c0 1.7 1.4 3.1 3.1 3.1H71v67.9c0 1.7 1.4 3.1 3.1 3.1h51.3c1.7 0 3.1-1.4 3.1-3.1V385h67.9c1.7 0 3.1-1.4 3.1-3.1z"/><path d="M357 212.2c33.5-19.9 56-56.4 56-98.2C413 51 362 0 299 0S185 51 185 114c0 41.8 22.5 78.3 56 98.2-57.1 16.7-81.3 57.2-91.6 86.3h31.9c14.6-29.8 48-70.5 117.7-70.5 105 0 127.7 92.5 127.7 100.7V427.5H171.4V414H142v13.5c0 15.8 12.8 28.5 28.5 28.5h256.9c15.8 0 28.5-12.8 28.5-28.5v-96c.1 0-5-91.9-98.9-119.3zM213.8 114c0-47.1 38.2-85.2 85.2-85.2S384.2 67 384.2 114 346 199.2 299 199.2s-85.2-38.1-85.2-85.2z"/></g></svg>