<svg width="320" height="446" viewBox="0 0 320 446" xmlns="http://www.w3.org/2000/svg" xmlns:xlink="http://www.w3.org/1999/xlink"><title>bg-logo</title><defs><path id="a" d="M0 0h320v480H0z"/></defs><g fill="none" fill-rule="evenodd"><mask id="b" fill="#fff"><use xlink:href="#a"/></mask><use xlink:href="#a"/><g fill="#CCECFB" mask="url(#b)"><path d="M24.373 168.08L-136.59 7.598v192.086H10.824c2.053-11.492 6.98-22.164 13.55-31.604zM10.823 231.288H-136.59c3.286 51.715 23.817 98.916 56.255 135.855l104.298-104.25c-6.16-9.44-11.087-20.113-13.14-31.605zM244.876 42.075C208.33 10.06 161.11-10.87 108.96-14.155v147.348c11.498 2.462 22.175 6.567 31.208 13.134L244.876 42.075zM163.984 260.43l104.708 104.66c31.207-36.528 50.917-82.908 54.612-133.802H175.892c-2.464 10.67-6.57 20.11-11.908 29.14zM175.48 199.684h147.414c-3.285-51.715-23.816-98.916-56.255-135.855L162.34 168.08c6.16 9.85 11.086 20.112 13.14 31.604zM-58.572 388.897c36.545 32.014 83.767 52.946 135.915 56.23V297.78c-11.497-2.464-22.173-6.568-31.207-13.135L-58.572 388.897zM108.96 297.78v147.347c52.15-3.284 99.37-24.216 135.916-56.23L140.58 284.645c-9.445 6.157-20.122 11.082-31.62 13.134zM-136.59-40.834C-96.76-1.02 27.25 123.753 48.19 144.686c9.033-5.337 18.477-9.85 29.153-11.493v-241.75L-137-299s.41 252.01.41 258.166z"/></g></g></svg>