<svg width="512" height="513" viewBox="0 0 512 513" xmlns="http://www.w3.org/2000/svg"><title>gear</title><path d="M443.8 203.9v.5c0 .3-2.4-8.4-6.6-18.9-.9-2.3-1.9-4.6-2.9-6.8-4.6-10.4-3.6-25.7 2.1-35.4 11.1-18.9 22.9-47 6.8-63l-11.3-12.2c-13.8-13.9-43.2-2-62.7 8.3-10 5.3-25.6 5.8-35.9 1.3-2-.9-4.1-1.8-6.1-2.6-10.5-4.2-20.8-15.6-23.9-26.5-5.9-21-18-48.6-40.6-48.6h-12.4c-19.6 0-33.1 28.6-40.3 49.4-3.7 10.7-14.7 22.1-25.1 26.4-1.8.8-3.6 1.5-5.4 2.3-10.3 4.7-25.5 3.6-35.3-2.1-18.7-11-47.6-23.3-64-6.9L68 79.6c-14.2 14.2-1.5 45 9.1 64.6 5.4 10 6 25.5 1.4 35.9l-2.1 4.8c-4.3 10.5-15.8 20.7-26.7 23.7-21 5.7-49.7 17.7-49.7 41v13.3c0 36.6 68.2 45.6 68.2 45.6v-.5c0-.3 2.4 8.4 6.6 18.9.9 2.3 1.9 4.6 2.9 6.8 4.6 10.4 3.6 25.7-2.1 35.4-11.1 18.9-22.9 47-6.8 63l11.3 12c13.8 13.9 43.2 2 62.7-8.3 10-5.3 25.6-5.8 35.9-1.3 2 .9 4.1 1.8 6.1 2.6 10.5 4.2 20.8 15.6 23.9 26.5 5.9 21 18 48.6 40.6 48.6h12.4c19.6 0 33.1-28.6 40.3-49.4 3.7-10.7 14.7-22.1 25.1-26.4 1.8-.8 3.6-1.5 5.4-2.3 10.3-4.7 25.5-3.6 35.3 2.1 18.7 11 47.6 23.3 64 6.9l12.1-10.2c14.2-14.2 1.5-45-9.1-64.6-5.4-10-6-25.5-1.4-35.9l2.1-4.8c4.3-10.5 15.8-20.7 26.7-23.7 21-5.7 49.7-17.7 49.7-41v-13.5c.1-36.6-68.1-45.6-68.1-45.5zM256 319.7c-35.1 0-63.6-28.5-63.6-63.6s28.5-63.6 63.6-63.6 63.6 28.5 63.6 63.6-28.5 63.6-63.6 63.6z" fill="#000" fill-rule="evenodd"/></svg>