<?xml version="1.0" encoding="UTF-8" standalone="no"?>
<svg width="481px" height="511px" viewBox="0 0 481 511" version="1.1" xmlns="http://www.w3.org/2000/svg" xmlns:xlink="http://www.w3.org/1999/xlink" xmlns:sketch="http://www.bohemiancoding.com/sketch/ns">
    <!-- Generator: Sketch 3.4.3 (16044) - http://www.bohemiancoding.com/sketch -->
    <title>trash</title>
    <desc>Created with Sketch.</desc>
    <defs></defs>
    <g id="Page-1" stroke="none" stroke-width="1" fill="none" fill-rule="evenodd" sketch:type="MSPage">
        <g id="trash" sketch:type="MSLayerGroup" fill="#02bdd4">
            <g id="Group" sketch:type="MSShapeGroup">
                <path d="M397.859721,138.013767 C384.708465,138.013767 374.045767,148.676465 374.045767,161.827721 L374.045767,462.592 L106.442419,462.592 L106.442419,161.827721 C106.442419,148.676465 95.7797209,138.013767 82.6284651,138.013767 C69.4772093,138.013767 58.8145116,148.676465 58.8145116,161.827721 L58.8145116,486.405953 C58.8145116,499.557209 69.4772093,510.219907 82.6284651,510.219907 L397.859721,510.219907 C411.010977,510.219907 421.673674,499.557209 421.673674,486.405953 L421.673674,161.827721 C421.673674,148.676465 411.010977,138.013767 397.859721,138.013767 L397.859721,138.013767 Z" id="Shape"></path>
                <path d="M456.674233,61.6662326 L314.915721,61.6662326 L314.915721,14.8837209 C314.915721,6.66195349 308.253767,0 300.032,0 L180.450233,0 C172.228465,0 165.566512,6.66195349 165.566512,14.8837209 L165.566512,61.6662326 L23.8139535,61.6662326 C10.6626977,61.6662326 0,72.3289302 0,85.480186 C0,98.6314419 10.6626977,109.29414 23.8139535,109.29414 L456.674233,109.29414 C469.825488,109.29414 480.488186,98.6314419 480.488186,85.480186 C480.488186,72.3289302 469.825488,61.6662326 456.674233,61.6662326 L456.674233,61.6662326 Z M195.333953,29.7674419 L285.148279,29.7674419 L285.148279,61.6662326 L195.333953,61.6662326 L195.333953,29.7674419 L195.333953,29.7674419 Z" id="Shape"></path>
                <path d="M183.581767,412.612465 L183.581767,178.235535 C183.581767,170.013767 176.919814,163.351814 168.698047,163.351814 C160.476279,163.351814 153.814326,170.013767 153.814326,178.235535 L153.814326,412.624372 C153.814326,420.84614 160.476279,427.508093 168.698047,427.508093 C176.919814,427.508093 183.581767,420.834233 183.581767,412.612465 L183.581767,412.612465 Z" id="Shape"></path>
                <path d="M255.124837,413.243535 L255.124837,178.860651 C255.124837,170.638884 248.462884,163.97693 240.241116,163.97693 C232.019349,163.97693 225.357395,170.638884 225.357395,178.860651 L225.357395,413.243535 C225.357395,421.465302 232.019349,428.127256 240.241116,428.127256 C248.462884,428.127256 255.124837,421.459349 255.124837,413.243535 L255.124837,413.243535 Z" id="Shape"></path>
                <path d="M325.816558,413.868651 L325.816558,179.485767 C325.816558,171.264 319.154605,164.602047 310.932837,164.602047 C302.71107,164.602047 296.049116,171.264 296.049116,179.485767 L296.049116,413.868651 C296.049116,422.090419 302.71107,428.752372 310.932837,428.752372 C319.154605,428.752372 325.816558,422.084465 325.816558,413.868651 L325.816558,413.868651 Z" id="Shape"></path>
            </g>
        </g>
    </g>
</svg>