<svg width="617" height="529" viewBox="0 0 617 529" xmlns="http://www.w3.org/2000/svg"><title>invite-a-friend</title><g fill="#009FE3" fill-rule="evenodd"><path d="M343.5 285h-70c-66.5 0-121 47.9-121 106.5V499s67 30 156 30 156-30 156-30V391.5c0-58.6-54.5-106.5-121-106.5z"/><circle cx="308.5" cy="187" r="92"/><path d="M495 190h-70c-1.2 0-2.4 0-3.5.1-.3 10.8-2.1 21.3-5.3 31.1-1.9 6.3-4.4 12.3-7.4 17.9-6.3 12-14.6 22.8-24.6 31.8 57.7 15.7 99.9 63.8 99.9 120.6v41.8c76.8-4.6 132-29.3 132-29.3V296.5C616 237.9 561.5 190 495 190zM420.9 175.3c11.9 5.6 25.1 8.7 39.1 8.7 50.8 0 92-41.2 92-92S510.8 0 460 0c-50.5 0-91.4 40.6-92 91 29 18 49.2 48.7 52.9 84.3zM231.9 270.9c-10-9-18.4-19.8-24.6-31.8-3.1-5.6-5.6-11.6-7.4-17.9-3.1-9.9-5-20.3-5.3-31.1-1.2 0-2.4-.1-3.5-.1h-70C54.5 190 0 237.9 0 296.5V404s55.2 24.7 132 29.3v-41.8c0-56.8 42.1-105 99.9-120.6zM156 184c14 0 27.2-3.1 39.1-8.7C198.8 139.7 219 109 248 91c-.5-50.3-41.5-91-92-91-50.8 0-92 41.2-92 92s41.2 92 92 92z"/></g></svg>