<svg width="570" height="182" viewBox="0 0 570 182" xmlns="http://www.w3.org/2000/svg"><title>Bitshares-logo_blue-only</title><g fill="#009FE3" fill-rule="evenodd"><path d="M557 95.4h-2.4v-.9h6v.9H558v7.2h-1v-7.2zM568.3 99.1c-.1-1.1-.1-2.5-.1-3.5-.3.9-.7 2-1 3.1l-1.4 4h-.8l-1.3-3.9c-.4-1.1-.7-2.2-.9-3.2 0 1-.1 2.4-.2 3.6l-.2 3.5h-1.2l.6-8.2h1.3l1.4 4c.4 1 .6 1.9.8 2.7.2-.8.5-1.7.8-2.7l1.4-4h1.3l.5 8.2h-1v-3.6zM214.8 79.4V68.9l8.9 7.3v10.7l-8.9-7.5zM204.2 101.5c-2.4-2.6-5.4-4.8-8.7-6.3-3.3-1.5-7.1-2.4-11-2.4-5.8 0-11.1 1.6-15.5 4.8-2.6 1.9-4.9 4.2-6.7 7V57.4h-5.2v94.7h5.2V141c1.8 2.7 4 5.1 6.7 7 4.4 3.2 9.6 4.8 15.5 4.8 4 0 7.7-.8 11-2.3 3.3-1.5 6.2-3.6 8.7-6.2 2.5-2.6 4.3-5.8 5.6-9.4 1.3-3.6 2.1-7.6 2.1-11.9 0-4.2-.7-8.3-2.1-11.9-1.3-3.6-3.2-6.8-5.6-9.6zm2.4 21.6c0 3.7-.6 7.1-1.6 10.1s-2.6 5.6-4.5 7.7c-2 2.2-4.3 3.8-7.1 5-2.7 1.1-5.7 1.8-9 1.8s-6.3-.6-9-1.8c-2.7-1.1-5.1-2.8-7.1-5s-3.5-4.7-4.6-7.7c-1-3-1.6-6.4-1.6-10.1 0-3.7.6-7.1 1.6-10.1s2.6-5.6 4.6-7.8c2-2.2 4.3-3.9 7.1-5.1 2.8-1.2 5.7-1.8 8.9-1.8s6.3.6 8.9 1.8c2.7 1.2 5.1 2.9 7.1 5.1 2 2.2 3.5 4.8 4.6 7.8 1.2 3 1.7 6.4 1.7 10.1zM219.1 93.3h5.2v59.5h-5.2zM256.1 145.6c-1.5 1.4-3.2 2.1-5.3 2.1-2.1 0-3.8-.7-5.1-2.2-1.3-1.5-2.1-3.4-2.1-5.8V98.9H259v-5.3h-15.2V74h-5.2v19.6h-8.2v5.2h8.2v40.8c0 3.8 1.1 7 3.5 9.4 2.4 2.5 5.3 3.8 8.8 3.8 1.7 0 3.3-.3 4.7-.9 1.4-.6 2.6-1.3 3.8-2.3l1.1-.9-3-4.4-1.4 1.3zM299.6 125.3c-1.6-1.2-3.4-2.2-5.4-2.8-1.9-.7-3.9-1.2-5.7-1.8l-3.6-1c-1.4-.4-2.9-.8-4.3-1.3-1.3-.5-2.6-1.1-3.8-1.9-1-.8-2-1.8-2.6-3.1-.7-1.3-1-3-1-5.1 0-1.7.4-3.2 1.1-4.4.8-1.2 1.8-2.4 2.9-3.1 1.2-.8 2.7-1.5 4.3-1.9 1.6-.5 3.3-.7 4.9-.7 2.8 0 5.5.4 7.6 1.1 2.2.8 4.3 1.9 6.4 3.5l1.2.9 3-4.1-1.1-.9c-2.5-2.1-5.2-3.5-8-4.4-2.7-.9-5.8-1.3-9.2-1.3-2.2 0-4.4.3-6.6.8-2.2.5-4.2 1.5-6 2.8-1.8 1.3-3.3 2.9-4.4 4.8-1.1 2-1.7 4.3-1.7 7 0 3.1.6 5.6 1.7 7.6 1.1 1.9 2.4 3.5 4 4.7 1.6 1.1 3.3 2.1 5.2 2.6 1.7.6 3.4 1 4.8 1.4l3.6 1c1.8.5 3.6 1 5.2 1.6 1.5.6 2.9 1.2 4 2.1 1 .8 2 1.8 2.5 3.1.7 1.3.9 3 .9 5.1 0 1.8-.4 3.4-1.2 4.6-.8 1.3-1.9 2.4-3.2 3.1-1.3.8-2.9 1.4-4.6 1.8-1.8.4-3.6.6-5.4.6-3.3 0-6.4-.7-9.3-1.9-2.9-1.2-5.6-3-7.8-5.3l-1.2-1.1-3.5 4 1 1c2.8 2.7 6 4.8 9.5 6.3 3.6 1.4 7.3 2.2 11.3 2.2 2.2 0 4.4-.3 6.7-.8 2.4-.5 4.4-1.4 6.3-2.5 1.9-1.2 3.5-2.7 4.7-4.7 1.2-2 1.9-4.4 1.9-7.3 0-3-.5-5.5-1.5-7.4-.7-2-2-3.6-3.6-4.9zM351.2 100c-2-2-4.2-3.5-7-4.6-2.6-1.1-5.6-1.7-8.6-1.7-4.2 0-8.2 1.1-11.6 3.3-1.9 1.2-3.6 2.6-4.9 4.3V58.2h-5.2v94.6h5.2v-37.3c0-2.4.5-4.6 1.2-6.6.8-2.1 2-3.9 3.5-5.4 1.5-1.5 3.2-2.7 5.3-3.6 2-.8 4.2-1.2 6.5-1.2s4.4.5 6.4 1.2c2 .8 3.8 2.1 5.2 3.6 1.5 1.5 2.6 3.3 3.5 5.4.8 2 1.2 4.2 1.2 6.6v37.3h5.4v-37.3c0-3.1-.6-6-1.7-8.7-.9-2.5-2.5-4.8-4.4-6.8zM406.4 100.8c-1.7-2.4-4-4.4-6.9-5.8-2.8-1.3-6.5-2.1-10.9-2.1-2 0-4.6.2-7.6.7-3.1.5-6.6 1.5-10.3 3l-1.5.7 2.2 4.9 1.4-.7c3.2-1.4 6.2-2.4 8.9-2.7 2.8-.4 5.2-.6 6.9-.6 3.4 0 6.2.5 8.3 1.4 2.1.9 3.7 2.3 4.9 3.9 1.2 1.7 2.1 3.9 2.5 6.3.4 2.1.7 4.3.8 6.8-6.3-1.3-11.9-2-16.7-2-7.7 0-13.7 1.7-17.9 4.9-2.8 2.3-4.7 4.9-5.6 7.7-.8 2.7-1.2 5.2-1.2 7.3 0 1.6.3 3.5.8 5.6.6 2.1 1.6 4.1 3 6 1.4 1.9 3.4 3.5 5.8 4.8 2.4 1.3 5.6 2.1 9.3 2.1 1.9 0 3.9-.2 6.1-.7 2.2-.5 4.3-1.1 6.5-2.1 2.2-.9 4.3-2.2 6.3-3.7 1.3-1 2.6-2.3 3.8-3.6v9.3h5.2v-32.1c0-3.9-.3-7.4-.8-10.6-.6-3.4-1.7-6.3-3.3-8.7zm-1.2 21.1v5.1c0 1.8-.2 3.8-.6 5.6-.3 1.8-1 3.5-2.2 5.1-1.2 1.8-2.7 3.3-4.3 4.6-1.7 1.3-3.4 2.4-5.2 3.1-1.8.8-3.6 1.3-5.4 1.7-1.8.4-3.5.6-5.1.6-2.7 0-5-.5-6.8-1.4-1.8-.9-3.2-2.2-4.1-3.5-1-1.3-1.7-2.7-2.2-4.2-.4-1.5-.7-2.8-.7-4 0-1.7.3-3.6.9-5.7.6-2 1.9-3.7 3.8-5.3 3.3-2.5 8.2-3.8 14.6-3.8 5.1 0 10.8.7 17.3 2.1zM448.8 96.7c-1.4-.9-3-1.7-4.8-2.3-1.8-.6-3.6-.8-5.5-.8-3.7 0-7.1 1-10.1 3-1.4.9-2.7 2.1-3.9 3.4v-5.7h-5.4v58.6h5.4v-38.4c0-2.3.4-4.3 1-6.2.8-1.9 1.7-3.6 3-5 1.2-1.4 2.7-2.5 4.4-3.3 2.9-1.3 6.4-1.5 9.3-.5 1.3.5 2.5 1.1 3.7 1.9l1.7 1.1 1.9-5.2-.7-.6zM454.5 121h47.1l-.1-1.7c-.3-4-1.1-7.6-2.4-10.8-1.3-3.2-3-6-5.2-8.3-2.2-2.3-4.8-4.1-7.7-5.4-2.9-1.2-6.3-1.9-9.9-1.9-4 0-7.7.8-11 2.3-3.3 1.5-6.2 3.6-8.7 6.3-2.4 2.6-4.2 5.8-5.6 9.6-1.3 3.7-2 7.7-2 12s.7 8.4 2 11.9c1.3 3.7 3.2 6.9 5.6 9.5 2.4 2.6 5.3 4.8 8.7 6.2 3.3 1.4 7.1 2.2 11 2.2 4.4 0 8.5-.7 12.1-2.1 3.8-1.3 7-3.3 9.7-5.8l1.1-1-3.3-3.9-1.2 1c-2.3 2-5 3.6-8.1 4.8-3.1 1.1-6.6 1.7-10.3 1.7-3.2 0-6.2-.6-8.8-1.8-2.6-1.2-5-2.9-6.9-5-1.9-2.2-3.5-4.7-4.5-7.7s-1.6-6.4-1.6-10.1v-1.8-.2zm.8-5.2c.5-2.3 1.2-4.3 2.3-6.2 1.2-2.4 2.7-4.4 4.6-6.1 1.9-1.7 4-3 6.4-4 2.4-1 5.1-1.4 7.9-1.4 3.2 0 5.9.6 8.3 1.6 2.4 1 4.2 2.4 5.8 4.2 1.6 1.8 2.8 3.9 3.8 6.1.8 1.8 1.3 3.8 1.7 5.7h-40.8v.1zM545.4 130.1c-1-2-2.4-3.6-4-4.8-1.6-1.2-3.4-2.2-5.4-2.8-1.9-.7-3.9-1.2-5.7-1.8l-3.6-1c-1.4-.4-2.9-.8-4.3-1.3-1.3-.5-2.6-1.1-3.8-1.9-1-.8-2-1.8-2.6-3.1-.6-1.3-1-3-1-5.1 0-1.7.4-3.2 1.1-4.4.8-1.2 1.8-2.4 3-3.1 1.2-.8 2.7-1.5 4.3-1.9 1.6-.5 3.3-.7 4.9-.7 2.8 0 5.5.4 7.6 1.1 2.2.8 4.3 1.9 6.4 3.5l1.2.9 3-4.1-1.1-.9c-2.5-2.1-5.2-3.5-8-4.4-2.7-.9-5.8-1.3-9.2-1.3-2.2 0-4.4.3-6.6.8-2.2.6-4.2 1.5-6 2.8-1.8 1.3-3.3 2.9-4.4 4.8-1.1 2-1.7 4.3-1.7 7 0 3.1.6 5.6 1.7 7.6 1.1 1.9 2.4 3.5 4 4.7 1.6 1.1 3.3 2.1 5.2 2.6 1.7.6 3.4 1 4.8 1.4l3.6 1c1.8.5 3.6 1 5.2 1.6 1.5.6 2.9 1.2 4 2.1 1 .8 2 1.8 2.5 3.1.7 1.3.9 3 .9 5.1 0 1.8-.4 3.4-1.2 4.6-.8 1.3-1.9 2.4-3.2 3.1-1.3.8-2.9 1.4-4.6 1.8-5 1.1-10.2.7-14.7-1.3-2.9-1.2-5.6-3-7.8-5.3l-1.2-1.1-3.5 4 1 1c2.8 2.7 6 4.8 9.5 6.3 3.6 1.4 7.3 2.2 11.3 2.2 2.2 0 4.4-.3 6.7-.8 2.4-.5 4.4-1.4 6.3-2.5 1.9-1.2 3.5-2.7 4.7-4.7 1.2-2 1.9-4.4 1.9-7.3.3-3-.2-5.5-1.2-7.5z"/><g><path d="M39.8 114.3L.6 75.2V122h35.9c.5-2.8 1.7-5.4 3.3-7.7zM36.5 129.7H.6c.8 12.6 5.8 24.1 13.7 33.1l25.4-25.4c-1.5-2.3-2.7-4.9-3.2-7.7zM93.5 83.6c-8.9-7.8-20.4-12.9-33.1-13.7v35.9c2.8.6 5.4 1.6 7.6 3.2l25.5-25.4zM73.8 136.8l25.5 25.5c7.6-8.9 12.4-20.2 13.3-32.6H76.7c-.6 2.6-1.6 4.9-2.9 7.1zM76.6 122h35.9c-.8-12.6-5.8-24.1-13.7-33.1l-25.4 25.4c1.5 2.4 2.7 4.9 3.2 7.7zM19.6 168.1c8.9 7.8 20.4 12.9 33.1 13.7v-35.9c-2.8-.6-5.4-1.6-7.6-3.2l-25.5 25.4zM60.4 145.9v35.9c12.7-.8 24.2-5.9 33.1-13.7l-25.4-25.4c-2.3 1.5-4.9 2.7-7.7 3.2zM.6 63.4c9.7 9.7 39.9 40.1 45 45.2 2.2-1.3 4.5-2.4 7.1-2.8V46.9L.5.5s.1 61.4.1 62.9z"/></g></g></svg>