<svg width="511" height="394" viewBox="0 0 511 394" xmlns="http://www.w3.org/2000/svg"><title>camera</title><g fill="#040707" fill-rule="evenodd"><circle cx="255.5" cy="218.5" r="86.9"/><path d="M468.4 62.2h-81.8l-44.5-45s-10.4-10-17-13.1C318.5 1 308 0 308 0H205.9s-10.5 1-17.1 4.1c-6.6 3.1-17 13.1-17 13.1l-44.5 45H42.6C19.2 62.2 0 81.4 0 104.9V351c0 23.5 19.2 42.6 42.6 42.6h425.8c23.5 0 42.6-19.2 42.6-42.6V104.9c0-23.5-19.1-42.7-42.6-42.7zM255.5 332.1c-62.7 0-113.6-50.9-113.6-113.6 0-62.7 50.9-113.6 113.6-113.6 62.7 0 113.6 50.9 113.6 113.6 0 62.7-50.8 113.6-113.6 113.6zm206.8-203.5c-9.5 0-17.1-7.7-17.1-17.1 0-9.4 7.7-17.1 17.1-17.1 9.4 0 17.1 7.7 17.1 17.1 0 9.4-7.7 17.1-17.1 17.1z"/></g></svg>