<svg width="98" height="97" viewBox="0 0 98 97" xmlns="http://www.w3.org/2000/svg"><title>share</title><path d="M81.1 62.8c-4.6 0-8.7 1.8-11.8 4.8L33.7 50c0-.5.1-1 .1-1.5 0-.6 0-1.3-.1-1.9L69.4 29c3 2.9 7.2 4.7 11.7 4.7 9.3 0 16.9-7.6 16.9-16.9C98 7.5 90.4 0 81.1 0c-9.3 0-16.9 7.6-16.9 16.9 0 .9.1 1.7.2 2.6L29.1 36.8c-3.1-3.2-7.4-5.2-12.2-5.2C7.6 31.6 0 39.2 0 48.5c0 9.3 7.6 16.9 16.9 16.9 4.9 0 9.3-2.1 12.4-5.5l35.1 17.3c-.1.8-.2 1.6-.2 2.5 0 9.3 7.6 16.9 16.9 16.9 9.3 0 16.9-7.7 16.9-17s-7.6-16.8-16.9-16.8z" fill="#00901F" fill-rule="evenodd"/></svg>